<?xml version="1.0" encoding="utf-8"?>
<!-- Generator: Adobe Illustrator 19.1.0, SVG Export Plug-In . SVG Version: 6.00 Build 0)  -->
<svg version="1.1" id="Layer_1" xmlns="http://www.w3.org/2000/svg" xmlns:xlink="http://www.w3.org/1999/xlink" x="0px" y="0px"
	 viewBox="-250 273 153 60" style="enable-background:new -326 164.1 307 232.9;" xml:space="preserve">
<path class="st0" d="M-167.9,303.7 l11,10.9l-6.2,6.3l-11-10.9l-11,10.9l-6.2-6.3l11-10.9l-11-10.9l6.2-6.3l11,10.9l11-10.9l6.2,6.3L-167.9,303.7z M-205.8,303.7 c0,9.5-7.7,17.1-17.1,17.1c-9.5,0-17.1-7.7-17.1-17.1c0-9.5,7.7-17.1,17.1-17.1C-213.5,286.6-205.8,294.2-205.8,303.7z M-108.2,320.8h-34.3v-34.3h34.3V320.8z"/>
</svg>
