<svg xmlns="http://www.w3.org/2000/svg" xmlns:xlink="http://www.w3.org/1999/xlink" version="1.1" x="0px" y="0px" viewBox="0 0 100 125" enable-background="new 0 0 100 100" xml:space="preserve"><g><path fill-rule="evenodd" clip-rule="evenodd" fill="none" d="M-9.093,18.586c37.569,0,75.139,0,112.717,0   c0,20.937,0,41.877,0,62.828c-37.566,0-75.141,0-112.717,0C-9.093,60.479-9.093,39.534-9.093,18.586z M15.581,48.488   c-3.705,3.733-7.451,7.51-11.206,11.293c0.135,0,0.291,0,0.447,0c4.374,0,8.747,0,13.121,0c2.979,0,5.958,0,8.938,0   c0.859,0,1.696-0.105,2.466-0.52c0.508-0.273,0.774-0.678,0.761-1.27c-0.019-0.873-0.005-1.746-0.003-2.619   c0-0.123,0.016-0.248,0.024-0.363c12.979,0,25.916,0,38.888,0c0,0.941,0,1.855,0,2.768c0,0.947,0.249,1.385,1.167,1.654   c0.692,0.203,1.435,0.334,2.154,0.336c7.339,0.023,14.675,0.014,22.014,0.014c0.141,0,0.28,0,0.41,0   c-3.766-3.795-7.512-7.568-11.252-11.337c3.717-3.743,7.462-7.518,11.198-11.283c-4.572,0-9.203,0-13.874,0   c0-0.994-0.024-1.951,0.009-2.906c0.023-0.71-0.298-1.154-0.919-1.439c-0.791-0.363-1.631-0.443-2.488-0.443   c-18.579,0.002-37.159,0.001-55.739,0.002c-0.205,0-0.416-0.021-0.615,0.013c-0.547,0.093-1.104,0.162-1.629,0.328   c-0.884,0.28-1.162,0.712-1.162,1.616c0,0.422,0,0.844,0,1.266c0,0.518,0,1.035,0,1.588c-4.692,0-9.321,0-13.916,0   C8.124,40.967,11.871,44.747,15.581,48.488z"/><path fill-rule="evenodd" clip-rule="evenodd" d="M15.581,48.488c-3.71-3.741-7.458-7.521-11.206-11.302c4.595,0,9.223,0,13.916,0   c0-0.553,0-1.07,0-1.588c0-0.422,0-0.844,0-1.266c0-0.903,0.278-1.335,1.162-1.616c0.525-0.166,1.082-0.235,1.629-0.328   c0.2-0.034,0.41-0.013,0.615-0.013c18.58-0.001,37.16,0,55.739-0.002c0.857,0,1.697,0.08,2.488,0.443   c0.621,0.285,0.942,0.729,0.919,1.439c-0.033,0.955-0.009,1.913-0.009,2.906c4.671,0,9.302,0,13.874,0   c-3.736,3.765-7.481,7.54-11.198,11.283c3.74,3.769,7.486,7.542,11.252,11.337c-0.13,0-0.27,0-0.41,0   c-7.339,0-14.675,0.01-22.014-0.014c-0.72-0.002-1.462-0.133-2.154-0.336c-0.918-0.27-1.167-0.707-1.167-1.654   c0-0.912,0-1.826,0-2.768c-12.972,0-25.908,0-38.888,0c-0.008,0.115-0.024,0.24-0.024,0.363c-0.002,0.873-0.015,1.746,0.003,2.619   c0.013,0.592-0.253,0.996-0.761,1.27c-0.77,0.414-1.607,0.52-2.466,0.52c-2.979,0-5.959,0-8.938,0c-4.374,0-8.747,0-13.121,0   c-0.156,0-0.312,0-0.447,0C8.13,55.998,11.876,52.221,15.581,48.488z M80.127,54.807c0-0.199,0-0.34,0-0.48   c0.001-6.677-0.004-13.353,0.015-20.031c0.001-0.479-0.179-0.779-0.603-0.874c-0.694-0.154-1.405-0.334-2.108-0.334   c-18.552-0.019-37.103-0.015-55.654-0.015c-0.22,0-0.446-0.025-0.659,0.015c-0.53,0.098-1.06,0.205-1.577,0.352   c-0.388,0.11-0.557,0.377-0.556,0.817C19,40.948,18.995,47.64,18.996,54.33c0,0.141,0,0.281,0,0.482   c1.041-0.531,2.107-0.533,3.18-0.533c18.243,0.004,36.486,0.004,54.729,0C77.992,54.279,79.072,54.281,80.127,54.807z    M80.834,37.885c0,0.201,0,0.357,0,0.514c-0.002,5.716-0.009,11.433,0.004,17.147c0.002,0.676-0.273,1.143-0.878,1.363   c-0.558,0.203-1.151,0.404-1.734,0.422c-1.949,0.061-3.902,0.037-5.854,0.051c-0.752,0.004-1.504,0.035-2.182,0.404   c-0.178,0.096-0.443,0.316-0.421,0.434c0.035,0.18,0.258,0.418,0.442,0.463c0.704,0.17,1.425,0.379,2.14,0.383   c6.766,0.027,13.531,0.018,20.297,0.018c0.14,0,0.28,0,0.406,0c-3.529-3.559-7.041-7.1-10.574-10.663   c3.478-3.5,6.996-7.041,10.469-10.536C88.999,37.885,84.951,37.885,80.834,37.885z M16.622,48.503   c-3.491,3.518-7.002,7.055-10.5,10.581c0.106,0,0.265,0,0.424,0c4.578,0,9.156,0,13.734,0c2.201,0,4.402,0,6.603,0   c0.742,0,1.468-0.084,2.132-0.434c0.491-0.258,0.515-0.59,0.015-0.805c-0.501-0.213-1.056-0.4-1.594-0.418   c-1.89-0.059-3.784-0.033-5.677-0.045c-0.838-0.006-1.669-0.051-2.457-0.391c-0.693-0.297-1.026-0.764-1.022-1.549   c0.02-5.657,0.011-11.314,0.011-16.972c0-0.185,0-0.37,0-0.566c-4.111,0-8.175,0-12.195,0   C9.599,41.432,13.106,44.963,16.622,48.503z M69.74,57.219c0.918-0.484,1.853-0.533,2.794-0.535   c1.658-0.004,3.315,0.002,4.973-0.002c0.751-0.002,1.503-0.039,2.179-0.41c0.175-0.096,0.406-0.301,0.402-0.449   c-0.005-0.152-0.242-0.387-0.418-0.432c-0.674-0.17-1.362-0.379-2.049-0.393c-2.492-0.045-4.986-0.018-7.479-0.018   c-0.128,0-0.256,0.016-0.401,0.021C69.74,55.736,69.74,56.445,69.74,57.219z M29.386,55.031c-0.062-0.023-0.088-0.041-0.114-0.041   c-2.754-0.002-5.51-0.029-8.263,0.023c-0.588,0.012-1.19,0.262-1.747,0.494c-0.373,0.154-0.358,0.443-0.003,0.652   c0.285,0.166,0.605,0.334,0.925,0.371c0.753,0.092,1.515,0.107,2.273,0.15c2.306,0.129,4.653-0.346,6.928,0.465   C29.386,56.439,29.386,55.746,29.386,55.031z"/><path fill-rule="evenodd" clip-rule="evenodd" fill="none" d="M80.127,54.807c-1.055-0.525-2.135-0.527-3.223-0.527   c-18.242,0.004-36.485,0.004-54.729,0c-1.073,0-2.14,0.002-3.18,0.533c0-0.201,0-0.342,0-0.482   C18.995,47.64,19,40.948,18.985,34.257c-0.001-0.44,0.168-0.707,0.556-0.817c0.518-0.147,1.047-0.254,1.577-0.352   c0.212-0.04,0.438-0.015,0.659-0.015c18.551,0,37.102-0.004,55.654,0.015c0.703,0,1.414,0.181,2.108,0.334   c0.424,0.095,0.604,0.394,0.603,0.874c-0.019,6.678-0.014,13.354-0.015,20.031C80.127,54.467,80.127,54.607,80.127,54.807z"/><path fill-rule="evenodd" clip-rule="evenodd" fill="none" d="M80.834,37.885c4.117,0,8.165,0,12.115,0   c-3.473,3.495-6.991,7.036-10.469,10.536c3.533,3.563,7.045,7.104,10.574,10.663c-0.126,0-0.267,0-0.406,0   c-6.766,0-13.531,0.01-20.297-0.018c-0.715-0.004-1.436-0.213-2.14-0.383c-0.185-0.045-0.407-0.283-0.442-0.463   c-0.022-0.117,0.243-0.338,0.421-0.434c0.678-0.369,1.43-0.4,2.182-0.404c1.951-0.014,3.904,0.01,5.854-0.051   c0.583-0.018,1.177-0.219,1.734-0.422c0.604-0.221,0.88-0.688,0.878-1.363c-0.013-5.714-0.006-11.431-0.004-17.147   C80.834,38.242,80.834,38.086,80.834,37.885z"/><path fill-rule="evenodd" clip-rule="evenodd" fill="none" d="M16.622,48.503c-3.516-3.54-7.023-7.071-10.526-10.598   c4.02,0,8.083,0,12.195,0c0,0.196,0,0.381,0,0.566c0,5.658,0.009,11.315-0.011,16.972c-0.004,0.785,0.329,1.252,1.022,1.549   c0.788,0.34,1.619,0.385,2.457,0.391c1.893,0.012,3.787-0.014,5.677,0.045c0.538,0.018,1.093,0.205,1.594,0.418   c0.5,0.215,0.476,0.547-0.015,0.805c-0.664,0.35-1.39,0.434-2.132,0.434c-2.201,0-4.402,0-6.603,0c-4.578,0-9.156,0-13.734,0   c-0.159,0-0.317,0-0.424,0C9.62,55.559,13.131,52.021,16.622,48.503z"/><path fill-rule="evenodd" clip-rule="evenodd" fill="none" d="M69.74,57.219c0-0.773,0-1.482,0-2.217   c0.146-0.006,0.273-0.021,0.401-0.021c2.493,0,4.987-0.027,7.479,0.018c0.687,0.014,1.375,0.223,2.049,0.393   c0.176,0.045,0.413,0.279,0.418,0.432c0.004,0.148-0.228,0.354-0.402,0.449c-0.676,0.371-1.428,0.408-2.179,0.41   c-1.657,0.004-3.314-0.002-4.973,0.002C71.593,56.686,70.658,56.734,69.74,57.219z"/><path fill-rule="evenodd" clip-rule="evenodd" fill="none" d="M29.386,55.031c0,0.715,0,1.408,0,2.115   c-2.275-0.811-4.622-0.336-6.928-0.465c-0.758-0.043-1.521-0.059-2.273-0.15c-0.32-0.037-0.641-0.205-0.925-0.371   c-0.355-0.209-0.37-0.498,0.003-0.652c0.556-0.232,1.159-0.482,1.747-0.494c2.753-0.053,5.508-0.025,8.263-0.023   C29.297,54.99,29.324,55.008,29.386,55.031z"/></g><text x="0" y="115" fill="#000000" font-size="5px" font-weight="bold" font-family="'Helvetica Neue', Helvetica, Arial-Unicode, Arial, Sans-serif">Created by Yasir Hashmi</text><text x="0" y="120" fill="#000000" font-size="5px" font-weight="bold" font-family="'Helvetica Neue', Helvetica, Arial-Unicode, Arial, Sans-serif">from the Noun Project</text></svg>